<svg width="588" height="554" viewBox="0 0 588 554" fill="none" xmlns="http://www.w3.org/2000/svg">
<path opacity="0.2" d="M261.673 146.091L118.332 64.9219L117.667 139.299L261.008 220.468L261.673 146.091Z" fill="url(#paint0_linear_69_2)"/>
<path opacity="0.15" d="M154.849 103.609L197.951 128.046L197.884 136.968L154.782 112.531L154.849 103.609Z" fill="white"/>
<path opacity="0.15" d="M154.716 121.52L246.508 173.524L246.441 182.58L154.649 130.576L154.716 121.52Z" fill="white"/>
<path d="M147.2 106.339C147.133 112.465 143.475 115.394 138.952 112.798C134.429 110.267 130.837 103.209 130.903 97.0832C130.97 90.9572 134.628 88.0274 139.151 90.6243C143.674 93.1546 147.266 100.213 147.2 106.339Z" fill="#1BA8C7"/>
<path opacity="0.2" d="M587.601 479.29L444.326 398.121L443.661 472.498L587.002 553.667L587.601 479.29Z" fill="url(#paint1_linear_69_2)"/>
<path opacity="0.15" d="M480.843 436.808L523.945 461.245L523.879 470.167L480.776 445.73L480.843 436.808Z" fill="white"/>
<path opacity="0.15" d="M480.71 454.719L572.502 506.724L572.435 515.779L480.644 463.775L480.71 454.719Z" fill="white"/>
<path d="M473.194 439.538C473.127 445.664 469.469 448.594 464.946 445.997C460.423 443.466 456.831 436.408 456.897 430.282C456.964 424.156 460.622 421.226 465.145 423.823C469.668 426.354 473.26 433.412 473.194 439.538Z" fill="#1BA8C7"/>
<path opacity="0.1" d="M420.447 3.12951C393.441 8.38985 332.712 15.1817 306.239 0.199707C306.439 106.205 332.38 256.624 417.187 380.675C503.325 353.441 531.595 233.785 533.59 129.045C507.117 113.996 447.12 38.8199 420.447 3.12951Z" fill="url(#paint2_linear_69_2)"/>
<path opacity="0.3" d="M387.455 25.1031C360.449 30.3635 299.72 37.1553 273.247 22.1733C273.447 128.179 299.388 278.598 384.195 402.649C470.333 375.415 498.603 255.692 500.598 151.018C474.125 135.97 414.128 60.7935 387.455 25.1031Z" fill="url(#paint3_linear_69_2)"/>
<path opacity="0.4" d="M500.665 150.952C474.125 135.903 414.194 60.7935 387.521 25.1031L384.262 402.582C470.333 375.415 498.603 255.692 500.665 150.952Z" fill="url(#paint4_linear_69_2)"/>
<path opacity="0.1" d="M243.448 225.395L376.945 298.974L377.012 544.478L243.515 470.967L243.448 225.395Z" fill="url(#paint5_linear_69_2)"/>
<path opacity="0.2" d="M260.742 368.889L361.381 424.356L361.647 512.383L261.008 456.917L260.742 368.889Z" fill="url(#paint6_linear_69_2)"/>
<path opacity="0.15" d="M262.538 310.293L309.099 335.929V344.985L262.538 319.349V310.293Z" fill="white"/>
<path opacity="0.15" d="M262.738 328.272L309.299 353.907V362.963L262.738 337.327V328.272Z" fill="white"/>
<path opacity="0.15" d="M262.671 345.584L351.004 394.259V403.315L262.671 354.64V345.584Z" fill="white"/>
<path opacity="0.2" d="M243.448 225.395L376.945 298.974L377.078 341.389L243.515 267.878L243.448 225.395Z" fill="url(#paint7_linear_69_2)"/>
<path opacity="0.2" d="M276.839 265.281C276.839 271.673 273.048 274.803 268.391 272.206C263.735 269.609 259.877 262.351 259.877 255.892C259.877 249.5 263.669 246.37 268.325 248.967C273.048 251.564 276.839 258.888 276.839 265.281Z" fill="white"/>
<path d="M322.735 368.09L322.602 331.601L413.13 381.474L413.263 417.964L322.735 368.09Z" fill="#1BA8C7"/>
<path opacity="0.3" d="M219.369 214.009L21.4181 99.6801L21.4846 202.956L201.942 307.23L219.436 333.132L219.369 214.009Z" fill="url(#paint8_linear_69_2)"/>
<path d="M0.33252 139.898V111.865L75.0298 155.013V183.046L0.33252 139.898Z" fill="#1AA8F8"/>
<path opacity="0.15" d="M168.485 209.748L125.116 184.711V193.767L168.485 218.803V209.748Z" fill="white"/>
<path opacity="0.15" d="M168.485 227.926L84.8743 179.651V188.706L168.485 236.982V227.926Z" fill="white"/>
<path opacity="0.15" d="M168.485 246.037L67.181 187.508V196.563L168.485 255.093V246.037Z" fill="white"/>
<path d="M179.127 225.395C179.127 233.918 184.182 243.707 190.368 247.302C196.554 250.898 201.61 246.903 201.61 238.38C201.61 229.857 196.554 220.068 190.368 216.473C184.182 212.877 179.127 216.872 179.127 225.395Z" fill="#1AA8F8"/>
<path opacity="0.2" d="M155.647 320.414C159.638 322.678 162.831 328.272 162.831 332.866V353.175L176.267 360.899C180.258 363.163 183.451 368.756 183.451 373.351C183.451 377.945 180.258 379.81 176.267 377.546L162.831 369.822V390.131C162.831 394.725 159.638 396.589 155.647 394.326C151.656 392.062 148.463 386.468 148.463 381.874V361.565L135.027 353.774C131.036 351.51 127.844 345.917 127.844 341.323C127.844 336.728 131.036 334.864 135.027 337.128L148.463 344.852V324.543C148.463 320.015 151.656 318.151 155.647 320.414Z" fill="url(#paint9_linear_69_2)"/>
<defs>
<linearGradient id="paint0_linear_69_2" x1="205.68" y1="114.372" x2="173.609" y2="170.988" gradientUnits="userSpaceOnUse">
<stop stop-color="white"/>
<stop offset="1" stop-color="white" stop-opacity="0"/>
</linearGradient>
<linearGradient id="paint1_linear_69_2" x1="531.661" y1="447.593" x2="499.603" y2="504.187" gradientUnits="userSpaceOnUse">
<stop stop-color="white"/>
<stop offset="1" stop-color="white" stop-opacity="0"/>
</linearGradient>
<linearGradient id="paint2_linear_69_2" x1="246.34" y1="37.3724" x2="431.803" y2="203.184" gradientUnits="userSpaceOnUse">
<stop stop-color="white"/>
<stop offset="1" stop-color="white" stop-opacity="0"/>
</linearGradient>
<linearGradient id="paint3_linear_69_2" x1="213.343" y1="59.3409" x2="398.805" y2="225.153" gradientUnits="userSpaceOnUse">
<stop stop-color="white"/>
<stop offset="1" stop-color="white" stop-opacity="0"/>
</linearGradient>
<linearGradient id="paint4_linear_69_2" x1="510.273" y1="190.012" x2="361.626" y2="218.431" gradientUnits="userSpaceOnUse">
<stop stop-color="white"/>
<stop offset="1" stop-color="white" stop-opacity="0"/>
</linearGradient>
<linearGradient id="paint5_linear_69_2" x1="244.245" y1="320.867" x2="384.383" y2="456.72" gradientUnits="userSpaceOnUse">
<stop stop-color="white"/>
<stop offset="1" stop-color="white" stop-opacity="0"/>
</linearGradient>
<linearGradient id="paint6_linear_69_2" x1="278.493" y1="370.827" x2="338.561" y2="498.783" gradientUnits="userSpaceOnUse">
<stop stop-color="white"/>
<stop offset="1" stop-color="white" stop-opacity="0"/>
</linearGradient>
<linearGradient id="paint7_linear_69_2" x1="288.724" y1="225.276" x2="330.572" y2="338.19" gradientUnits="userSpaceOnUse">
<stop stop-color="white"/>
<stop offset="1" stop-color="white" stop-opacity="0"/>
</linearGradient>
<linearGradient id="paint8_linear_69_2" x1="176.203" y1="172.689" x2="73.9183" y2="252.69" gradientUnits="userSpaceOnUse">
<stop stop-color="white"/>
<stop offset="1" stop-color="white" stop-opacity="0"/>
</linearGradient>
<linearGradient id="paint9_linear_69_2" x1="169.537" y1="346.391" x2="134.682" y2="373.869" gradientUnits="userSpaceOnUse">
<stop stop-color="white"/>
<stop offset="1" stop-color="white" stop-opacity="0"/>
</linearGradient>
</defs>
</svg>
